<?xml version="1.0" standalone="no"?>
<!DOCTYPE svg PUBLIC "-//W3C//DTD SVG 20010904//EN"
 "http://www.w3.org/TR/2001/REC-SVG-20010904/DTD/svg10.dtd">
<svg version="1.0" xmlns="http://www.w3.org/2000/svg"
 width="488.000000pt" height="150.000000pt" viewBox="0 0 488.000000 150.000000"
 preserveAspectRatio="xMidYMid meet">

<g transform="translate(0.000000,150.000000) scale(0.100000,-0.100000)"
fill="#000000" stroke="none">
<path d="M0 750 l0 -750 2440 0 2440 0 0 750 0 750 -2440 0 -2440 0 0 -750z
m3671 40 l307 -119 119 25 c65 14 128 28 139 31 12 3 49 -5 83 -17 50 -19 61
-27 61 -45 0 -12 -9 -30 -19 -39 -25 -23 -141 -61 -242 -81 -46 -8 -83 -16
-84 -18 -1 -1 -28 -58 -59 -127 -58 -126 -67 -140 -98 -140 -16 0 -18 11 -18
83 0 81 -1 84 -32 114 l-33 31 -153 -1 -153 -1 -6 -27 c-9 -45 -29 -42 -67 7
-19 25 -37 45 -40 45 -21 -2 -27 1 -23 12 3 6 -23 40 -56 75 -59 60 -60 62
-34 62 15 0 50 -11 77 -25 27 -14 52 -25 55 -25 4 0 5 19 3 43 -4 63 23 62 90
-6 l54 -54 66 14 c36 7 67 15 69 17 9 9 -100 91 -226 169 -117 73 -140 91
-130 103 6 8 19 14 27 14 9 0 154 -54 323 -120z m-621 -85 l-1 -40 -13 31
c-21 48 -83 61 -109 23 -24 -34 -10 -57 43 -73 74 -22 89 -33 96 -71 6 -36
-11 -76 -45 -102 -21 -16 -60 -16 -91 1 -21 12 -26 12 -37 -3 -10 -13 -12 -8
-13 34 l0 50 20 -33 c26 -42 64 -57 102 -41 31 13 47 52 31 78 -5 9 -31 23
-56 31 -65 21 -87 43 -87 85 0 54 31 77 102 73 l58 -3 0 -40z m-1732 28 c-10
-2 -18 -7 -18 -10 0 -10 44 -83 49 -83 6 0 51 75 51 84 0 2 -8 7 -17 9 -10 3
5 5 32 4 28 0 40 -2 28 -4 -13 -3 -35 -25 -54 -56 l-32 -52 39 -73 c21 -41 48
-78 59 -82 14 -6 1 -9 -40 -9 -33 0 -52 3 -43 7 16 6 14 13 -13 61 l-31 54
-34 -54 -35 -54 23 -7 c15 -4 5 -6 -27 -6 -27 1 -41 3 -30 5 11 3 37 31 58 65
l37 60 -37 68 c-24 43 -46 71 -58 73 -11 2 9 4 45 4 36 1 57 -1 48 -4z m599
-5 c-9 -7 -23 -31 -30 -53 -14 -40 -13 -52 19 -135 3 -9 20 24 40 79 40 109
39 108 17 114 -10 3 0 5 21 6 34 1 37 -1 23 -11 -9 -7 -35 -67 -58 -133 -23
-66 -45 -124 -49 -128 -4 -4 -15 14 -25 40 -10 26 -21 52 -25 56 -3 4 -15 -17
-25 -48 -11 -30 -22 -55 -25 -55 -3 0 -18 37 -34 83 -57 163 -67 186 -84 190
-9 3 43 5 117 6 110 1 132 -1 118 -11z m266 5 c-22 -4 -23 -8 -23 -133 0 -125
1 -129 23 -133 12 -2 -7 -4 -43 -4 -36 0 -55 2 -42 4 21 4 22 8 22 133 0 125
-1 129 -22 133 -13 2 6 4 42 4 36 0 55 -2 43 -4z m213 -85 c31 -51 58 -95 60
-97 2 -2 4 37 4 87 0 78 -2 91 -17 95 -10 3 2 5 27 4 25 0 35 -2 23 -4 -23 -4
-23 -7 -23 -139 0 -74 -4 -134 -8 -134 -4 0 -41 54 -81 120 -41 66 -75 120
-77 120 -2 0 -4 -51 -4 -114 0 -111 1 -115 23 -119 12 -2 2 -4 -23 -4 -25 -1
-37 1 -27 4 15 4 17 19 17 133 0 114 -2 129 -17 133 -10 3 1 5 24 6 l42 1 57
-92z m362 81 c19 -1 22 -6 22 -43 l0 -41 -20 32 c-34 57 -76 67 -115 28 -22
-22 -25 -32 -25 -105 0 -106 17 -140 71 -140 34 0 49 17 49 56 0 26 -5 34 -22
37 -13 2 6 4 42 4 36 1 57 -1 48 -4 -9 -2 -20 -18 -23 -34 -15 -66 -94 -91
-161 -50 -40 24 -69 95 -61 147 12 75 75 129 137 119 19 -3 45 -6 58 -6z
m-1148 -159 c0 -5 -16 -10 -35 -10 -19 0 -35 5 -35 10 0 6 16 10 35 10 19 0
35 -4 35 -10z"/>
<path d="M1779 628 l35 -102 14 34 c12 31 12 40 -9 102 -21 61 -26 68 -50 68
l-26 0 36 -102z"/>
<path d="M1840 726 c0 -1 5 -18 11 -36 l12 -33 13 24 c20 36 17 49 -11 49 -14
0 -25 -2 -25 -4z"/>
</g>
</svg>
